<svg width="198" height="76" viewBox="0 0 198 76" fill="none" xmlns="http://www.w3.org/2000/svg">
<path d="M67.3864 56V29.8182H76.7955V56H67.3864ZM72.0909 27.0909C70.8182 27.0909 69.7273 26.6705 68.8182 25.8295C67.9091 24.9886 67.4545 23.9773 67.4545 22.7955C67.4545 21.6136 67.9091 20.6023 68.8182 19.7614C69.7273 18.9205 70.8182 18.5 72.0909 18.5C73.375 18.5 74.4659 18.9205 75.3636 19.7614C76.2727 20.6023 76.7273 21.6136 76.7273 22.7955C76.7273 23.9773 76.2727 24.9886 75.3636 25.8295C74.4659 26.6705 73.375 27.0909 72.0909 27.0909ZM81.4531 56V21.0909H96.5213C99.1122 21.0909 101.379 21.6023 103.322 22.625C105.266 23.6477 106.777 25.0852 107.857 26.9375C108.936 28.7898 109.476 30.9545 109.476 33.4318C109.476 35.9318 108.919 38.0966 107.805 39.9261C106.703 41.7557 105.152 43.1648 103.152 44.1534C101.163 45.142 98.8395 45.6364 96.1804 45.6364H87.1804V38.2727H94.2713C95.3849 38.2727 96.3338 38.0795 97.1179 37.6932C97.9134 37.2955 98.5213 36.733 98.9418 36.0057C99.3736 35.2784 99.5895 34.4205 99.5895 33.4318C99.5895 32.4318 99.3736 31.5795 98.9418 30.875C98.5213 30.1591 97.9134 29.6136 97.1179 29.2386C96.3338 28.8523 95.3849 28.6591 94.2713 28.6591H90.9304V56H81.4531ZM146.771 38.5455C146.771 42.4318 146.016 45.7102 144.504 48.3807C142.993 51.0398 140.953 53.0568 138.385 54.4318C135.817 55.7955 132.953 56.4773 129.794 56.4773C126.612 56.4773 123.737 55.7898 121.169 54.4148C118.612 53.0284 116.578 51.0057 115.067 48.3466C113.567 45.6761 112.817 42.4091 112.817 38.5455C112.817 34.6591 113.567 31.3864 115.067 28.7273C116.578 26.0568 118.612 24.0398 121.169 22.6761C123.737 21.3011 126.612 20.6136 129.794 20.6136C132.953 20.6136 135.817 21.3011 138.385 22.6761C140.953 24.0398 142.993 26.0568 144.504 28.7273C146.016 31.3864 146.771 34.6591 146.771 38.5455ZM137.021 38.5455C137.021 36.4545 136.743 34.6932 136.186 33.2614C135.641 31.8182 134.828 30.7273 133.749 29.9886C132.68 29.2386 131.362 28.8636 129.794 28.8636C128.226 28.8636 126.902 29.2386 125.822 29.9886C124.754 30.7273 123.942 31.8182 123.385 33.2614C122.839 34.6932 122.567 36.4545 122.567 38.5455C122.567 40.6364 122.839 42.4034 123.385 43.8466C123.942 45.2784 124.754 46.3693 125.822 47.1193C126.902 47.858 128.226 48.2273 129.794 48.2273C131.362 48.2273 132.68 47.858 133.749 47.1193C134.828 46.3693 135.641 45.2784 136.186 43.8466C136.743 42.4034 137.021 40.6364 137.021 38.5455ZM169.974 32C169.884 30.8636 169.457 29.9773 168.696 29.3409C167.946 28.7045 166.804 28.3864 165.27 28.3864C164.293 28.3864 163.491 28.5057 162.866 28.7443C162.253 28.9716 161.798 29.2841 161.503 29.6818C161.207 30.0795 161.054 30.5341 161.043 31.0455C161.02 31.4659 161.094 31.8466 161.264 32.1875C161.446 32.517 161.73 32.8182 162.116 33.0909C162.503 33.3523 162.997 33.5909 163.599 33.8068C164.202 34.0227 164.918 34.2159 165.747 34.3864L168.611 35C170.543 35.4091 172.196 35.9489 173.571 36.6193C174.946 37.2898 176.071 38.0795 176.946 38.9886C177.821 39.8864 178.463 40.8977 178.872 42.0227C179.293 43.1477 179.509 44.375 179.52 45.7045C179.509 48 178.935 49.9432 177.798 51.5341C176.662 53.125 175.037 54.3352 172.923 55.1648C170.821 55.9943 168.293 56.4091 165.338 56.4091C162.304 56.4091 159.656 55.9602 157.395 55.0625C155.145 54.1648 153.395 52.7841 152.145 50.9205C150.906 49.0455 150.281 46.6477 150.27 43.7273H159.27C159.327 44.7955 159.594 45.6932 160.071 46.4205C160.548 47.1477 161.219 47.6989 162.082 48.0739C162.957 48.4489 163.997 48.6364 165.202 48.6364C166.213 48.6364 167.06 48.5114 167.741 48.2614C168.423 48.0114 168.94 47.6648 169.293 47.2216C169.645 46.7784 169.827 46.2727 169.838 45.7045C169.827 45.1705 169.651 44.7045 169.31 44.3068C168.98 43.8977 168.435 43.5341 167.673 43.2159C166.912 42.8864 165.884 42.5795 164.588 42.2955L161.111 41.5455C158.02 40.875 155.582 39.7557 153.798 38.1875C152.026 36.608 151.145 34.4545 151.156 31.7273C151.145 29.5114 151.736 27.5739 152.929 25.9148C154.134 24.2443 155.798 22.9432 157.923 22.0114C160.06 21.0795 162.509 20.6136 165.27 20.6136C168.088 20.6136 170.526 21.0852 172.582 22.0284C174.639 22.9716 176.224 24.3011 177.338 26.017C178.463 27.7216 179.031 29.7159 179.043 32H169.974Z" fill="#7883E3"/>
<g clip-path="url(#clip0_13_126)">
<path d="M52 59H20C19.4696 59 18.9609 58.7893 18.5858 58.4142C18.2107 58.0391 18 57.5304 18 57V21C18 20.4696 18.2107 19.9609 18.5858 19.5858C18.9609 19.2107 19.4696 19 20 19H52C52.5304 19 53.0391 19.2107 53.4142 19.5858C53.7893 19.9609 54 20.4696 54 21V57C54 57.5304 53.7893 58.0391 53.4142 58.4142C53.0391 58.7893 52.5304 59 52 59ZM28 33V37H44V33H28ZM28 41V45H44V41H28Z" fill="#7883E3"/>
</g>
<path d="M181.27 11.3182V9.72727H187.591V11.3182H185.403V17H183.457V11.3182H181.27ZM188.334 9.72727H190.791L192.482 13.8466H192.567L194.257 9.72727H196.715V17H194.783V12.7955H194.726L193.107 16.9432H191.942L190.323 12.767H190.266V17H188.334V9.72727Z" fill="#7883E3"/>
<defs>
<clipPath id="clip0_13_126">
<rect width="48" height="48" fill="white" transform="translate(12 15)"/>
</clipPath>
</defs>
</svg>
